<svg xmlns="http://www.w3.org/2000/svg" width="20" height="20" fill="none">
  <path fill="#1B1B1B"
    d="M18.334 6.034a.833.833 0 0 0-.242-.592l-3.533-3.533a.833.833 0 0 0-.592-.242.833.833 0 0 0-.592.242l-2.358 2.358-9.108 9.108a.834.834 0 0 0-.242.592V17.5a.833.833 0 0 0 .833.834h3.534a.833.833 0 0 0 .633-.242l9.058-9.108 2.367-2.317a.991.991 0 0 0 .183-.275.826.826 0 0 0 0-.2.583.583 0 0 0 0-.117l.059-.041ZM5.692 16.667H3.334v-2.358l8.275-8.275 2.358 2.358-8.275 8.275Zm9.45-9.45-2.358-2.358 1.183-1.175 2.35 2.35-1.175 1.183Z" />
</svg>
