<svg xmlns="http://www.w3.org/2000/svg" width="405" height="34" fill="none">
  <path stroke="#1B1B1B" d="M0 .5h404.25" />
  <path fill="#1B1B1B"
    d="M82.5 21.625C82.5 28.459 76.96 34 70.125 34c-6.834 0-12.375-5.54-12.375-12.375S63.29 9.25 70.125 9.25 82.5 14.79 82.5 21.625Z" />
  <path fill="#1B1B1B"
    d="M65.176 1h9.9v9.9h-9.9zM214.5 21.625c0 6.834-5.54 12.375-12.375 12.375s-12.375-5.54-12.375-12.375S195.29 9.25 202.125 9.25 214.5 14.79 214.5 21.625Z" />
  <path fill="#1B1B1B"
    d="M197.175 1h9.9v9.9h-9.9zM148.5 21.625c0 6.834-5.54 12.375-12.375 12.375s-12.375-5.54-12.375-12.375S129.29 9.25 136.125 9.25 148.5 14.79 148.5 21.625Z" />
  <path fill="#1B1B1B"
    d="M131.176 1h9.9v9.9h-9.9zM280.501 21.625c0 6.834-5.541 12.375-12.375 12.375-6.835 0-12.375-5.54-12.375-12.375s5.54-12.375 12.375-12.375c6.834 0 12.375 5.54 12.375 12.375Z" />
  <path fill="#1B1B1B"
    d="M263.176 1h9.9v9.9h-9.9zM346.5 21.625c0 6.834-5.54 12.375-12.375 12.375s-12.375-5.54-12.375-12.375S327.29 9.25 334.125 9.25 346.5 14.79 346.5 21.625Z" />
  <path fill="#1B1B1B" d="M329.176 1h9.9v9.9h-9.9z" />
</svg>
