<svg xmlns="http://www.w3.org/2000/svg" height="1em" fill="currentColor" viewBox="0 0 512 512">
  <path
    d="M78.156 256.798q.797-50.243 24.722-90.119 23.128-40.673 63.801-63.8 39.876-23.926 90.119-24.723 55.825.797 98.89 30.305 43.066 28.71 64.599 76.56 6.38 10.368 17.545 7.178 9.57-5.582 6.38-16.747-24.723-55.028-74.168-88.524-49.446-33.495-113.246-34.292-69.384.797-121.222 39.875L18.343 53.433q-7.178-2.393-13.558 3.19Q0 62.206 2.393 70.181L57.42 212.935q-4.785 21.532-4.785 43.863.797 57.42 27.912 102.878 27.116 46.255 73.371 73.37 45.458 27.116 102.879 27.913 45.457 0 84.535-18.342 39.078-18.343 67.788-49.446 7.178-9.57-.797-18.342-3.988-3.19-8.773-3.19-5.582 0-9.57 3.987-24.722 27.913-59.015 43.863t-74.168 15.95q-50.243-.797-90.119-24.722-40.673-23.128-63.8-63.801-23.926-39.875-24.723-90.118Zm35.09-145.147q-27.115 27.115-43.065 63.003l-9.57-24.723q.797-.797.797-1.595 13.558-23.925 31.9-43.065l19.938 6.38ZM66.991 96.498q-9.57 11.166-18.343 23.128l-12.76-33.495L66.99 96.498ZM220.91 239.252q7.975 8.773 18.342 2.393 8.773-7.975 2.393-18.343-19.938-23.925-48.648-23.925-28.71 0-48.648 23.925-5.583 10.368 2.392 18.343 10.368 5.582 18.343-2.393 11.165-14.355 27.913-14.355t27.913 14.355Zm127.6 0q7.976 8.773 18.344 2.393 8.772-7.975 2.392-18.343-19.938-23.925-48.648-23.925-28.71 0-48.648 23.925-5.582 10.368 2.393 18.343 10.367 5.582 18.342-2.393 11.165-14.355 27.913-14.355t27.913 14.355Zm-43.065 55.028q7.178 3.19 9.57 6.38 2.393 3.19 2.393 3.988 0 .797-2.392 3.988-2.393 3.19-9.57 6.38-13.558 6.38-30.306 8.772-1.595 0-2.392.798-2.393.797-3.19 2.392-1.595.798-2.393 3.19-.797 1.595-.797 3.19t.797 3.19q.798 2.393 2.393 3.988.797.797 3.19 1.595.797.797 2.392.797 16.748 2.393 30.305 8.773 7.178 3.19 9.57 6.38 2.393 3.19 2.393 3.988 0 .797-2.392 3.987-2.393 3.19-9.57 6.38-13.558 6.38-31.103 8.773-7.975 2.392-7.975 11.165 2.392 7.975 11.165 7.975 19.14-2.393 36.685-10.368 8.773-4.785 15.153-10.367 6.38-7.178 7.177-17.545-.797-9.57-6.38-15.95H473.72q15.95 0 27.115-11.166 10.367-11.165 11.165-27.115v-51.04q-.798-15.95-11.165-27.116-11.165-10.367-27.115-11.165H448.2q-15.95.798-27.116 11.165-10.367 11.165-11.165 27.116.798 15.95 11.165 27.115 11.165 10.367 27.115 11.165h12.76q11.963-.798 12.76-12.76-.797-11.963-12.76-12.76H448.2q-11.962-.798-12.76-12.76.798-11.963 12.76-12.76h25.52q11.963.797 12.76 12.76v51.04q-.797 11.963-12.76 12.76H330.17q5.582-6.38 6.38-15.95-.798-10.368-7.178-16.748-6.38-6.38-15.153-10.367-17.545-8.773-36.685-11.165-8.773 0-11.165 7.975 0 8.772 7.975 11.165 17.545 2.392 31.102 8.772Z" />
</svg>
